# xmcd CD database file
# Copyright (C) 1993-1998 Ti Kan
# 
# Track frame offsets:
#     150
#     10025
#     22768
#     38433
#     49265
#     66680
#     80123
#     94175
#     108938
#     121710
#     147343
#     163673
#     173483
# 
# Disc length: 2517 seconds
# 
# Revision: 1
# Processed by: cddbd v1.4b41PL1 Copyright (c) Steve Scherf et al.
# Submitted via: DiscPlay 4.0.4
# 
DISCID=9e09d30d
DTITLE=Various Artist - Merry Christmas MCA Nashville
DYEAR=1900
DGENRE=
TTITLE0=Christmas Memories(instrumental)S.Wariner
TTITLE1=Let It Snow,Let It Snow S. Wariner
TTITLE2=The Christmas Song -Reba McEntire
TTITLE3=Winter Wonderland-George Strait
TTITLE4=Silent Night-Skip Ewing
TTITLE5=The Most Wonderful Time of the Year-Steve Wariner
TTITLE6=White Chistmas-Skip Ewing
TTITLE7=I'll Be Home For Christmas-Reba McEtire
TTITLE8=Following Yonder Star-(Medley)Skip Ewing
TTITLE9=Medley(Hark the Herald Angels Sing-S. Wariner
TTITLE10=It Was'nt His Child-Skip Ewing
TTITLE11=Santa Claus is Coming to Town-George Strait
TTITLE12=On Christmas Morning-Steve Wariner
EXTD=
EXTT0=
EXTT1=
EXTT2=
EXTT3=
EXTT4=
EXTT5=
EXTT6=
EXTT7=
EXTT8=
EXTT9=
EXTT10=
EXTT11=
EXTT12=
PLAYORDER=
